<svg width="20" height="19" viewBox="0 0 20 19" fill="none" xmlns="http://www.w3.org/2000/svg">
<path d="M12.1665 4.08317C12.1399 3.88985 12.1262 3.69497 12.1256 3.49984C12.1262 3.3047 12.1399 3.10982 12.1665 2.9165H5.70312L6.08229 4.08317H12.1665Z" fill="black"/>
<path d="M6.77539 18.6665C7.50026 18.6665 8.08789 18.0789 8.08789 17.354C8.08789 16.6291 7.50026 16.0415 6.77539 16.0415C6.05052 16.0415 5.46289 16.6291 5.46289 17.354C5.46289 18.0789 6.05052 18.6665 6.77539 18.6665Z" fill="black"/>
<path d="M14.75 18.6665C15.4749 18.6665 16.0625 18.0789 16.0625 17.354C16.0625 16.6291 15.4749 16.0415 14.75 16.0415C14.0251 16.0415 13.4375 16.6291 13.4375 17.354C13.4375 18.0789 14.0251 18.6665 14.75 18.6665Z" fill="black"/>
<path d="M16.5008 7.87495H16.2558L15.5266 11.0833H6.7766L4.11077 2.64245C4.08193 2.55289 4.03186 2.47162 3.96482 2.4056C3.89778 2.33958 3.81576 2.29075 3.72577 2.26329L1.3341 1.52828C1.26056 1.50569 1.18329 1.49779 1.1067 1.50506C1.03011 1.51232 0.955698 1.5346 0.887718 1.57062C0.750426 1.64337 0.647656 1.76768 0.602016 1.9162C0.556377 2.06472 0.571607 2.22529 0.644355 2.36258C0.717104 2.49988 0.841412 2.60265 0.989933 2.64829L3.0841 3.28995L5.7616 11.7483L4.80493 12.53L4.7291 12.6058C4.49246 12.8785 4.35833 13.2252 4.34982 13.5861C4.3413 13.9471 4.45892 14.2997 4.68243 14.5833C4.84143 14.7766 5.04346 14.9301 5.27238 15.0314C5.5013 15.1327 5.75075 15.179 6.00077 15.1666H15.7366C15.8913 15.1666 16.0397 15.1052 16.1491 14.9958C16.2585 14.8864 16.3199 14.738 16.3199 14.5833C16.3199 14.4286 16.2585 14.2802 16.1491 14.1708C16.0397 14.0614 15.8913 14 15.7366 14H5.90743C5.84026 13.9977 5.77481 13.9781 5.71742 13.9431C5.66002 13.9081 5.61261 13.859 5.57977 13.8003C5.54693 13.7417 5.52977 13.6755 5.52994 13.6083C5.53012 13.5411 5.54762 13.4751 5.58077 13.4166L6.9866 12.25H15.9933C16.1281 12.2532 16.2599 12.2097 16.3663 12.1268C16.4726 12.0438 16.547 11.9265 16.5766 11.795L17.4924 7.76412C17.1672 7.83871 16.8345 7.8759 16.5008 7.87495Z" fill="black"/>
<path d="M16.5007 6.41683C18.1115 6.41683 19.4173 5.11099 19.4173 3.50016C19.4173 1.88933 18.1115 0.583496 16.5007 0.583496C14.8898 0.583496 13.584 1.88933 13.584 3.50016C13.584 5.11099 14.8898 6.41683 16.5007 6.41683Z" fill="black"/>
</svg>
