<svg width="120" height="80" viewBox="0 0 120 80" fill="none" xmlns="http://www.w3.org/2000/svg">
<path d="M60 0C32.7273 0 9.43636 16.5867 0 40C9.43636 63.4133 32.7273 80 60 80C87.2727 80 110.564 63.4133 120 40C110.564 16.5867 87.2727 0 60 0ZM60 66.6667C44.9455 66.6667 32.7273 54.72 32.7273 40C32.7273 25.28 44.9455 13.3333 60 13.3333C75.0545 13.3333 87.2727 25.28 87.2727 40C87.2727 54.72 75.0545 66.6667 60 66.6667ZM60 24C50.9455 24 43.6364 31.1467 43.6364 40C43.6364 48.8533 50.9455 56 60 56C69.0545 56 76.3636 48.8533 76.3636 40C76.3636 31.1467 69.0545 24 60 24Z" fill="#718096"/>
</svg>
