<svg width="120" height="99" viewBox="0 0 120 99" fill="none" xmlns="http://www.w3.org/2000/svg">
<path d="M74.94 45.8915C74.8463 42.1297 73.2328 38.5516 70.4428 35.918C67.6528 33.2843 63.9063 31.803 60 31.7891L74.94 45.8915Z" fill="#6B7280"/>
<path d="M49.2 22.5408C52.5889 21.0407 56.2705 20.2526 60 20.2289C67.1608 20.2289 74.0284 22.9691 79.0919 27.8467C84.1554 32.7242 87 39.3396 87 46.2375C86.9928 49.301 86.403 52.3373 85.26 55.196L102 70.1654C109.474 63.3214 115.576 55.2102 120 46.2375C120 46.2375 102 5.77969 60 5.77969C51.7271 5.74331 43.5426 7.41866 36 10.6924L49.2 22.5408ZM12 0L6 5.77969L21.3 19.6509C12.3336 26.9675 5.07478 36.0279 0 46.2375C0 46.2375 18 86.6954 60 86.6954C69.7164 86.7414 79.2892 84.436 87.84 79.9909L108 98.2547L114 92.4751L12 0ZM60 72.2461C52.8392 72.2461 45.9716 69.5059 40.9081 64.6284C35.8446 59.7508 33 53.1354 33 46.2375C33.0331 41.7698 34.2739 37.3875 36.6 33.5222L45.78 41.845C45.2829 43.2608 45.0197 44.743 45 46.2375C44.9939 48.5899 45.5866 50.9078 46.726 52.9884C47.8655 55.069 49.517 56.8488 51.5361 58.1721C53.5551 59.4953 55.8801 60.3216 58.3075 60.5786C60.735 60.8356 63.1908 60.5156 65.46 59.6464L74.7 68.027C70.3309 70.7819 65.2219 72.2482 60 72.2461V72.2461Z" fill="#718096"/>
</svg>
